<svg width="40" height="34" viewBox="0 0 40 34" fill="none" xmlns="http://www.w3.org/2000/svg">
<path d="M2 29.4444V11.6667C2 10.7237 2.37928 9.81931 3.05442 9.15251C3.72955 8.48571 4.64522 8.11111 5.6 8.11111H6.5C7.05888 8.11111 7.61009 7.9826 8.10997 7.73574C8.60985 7.48889 9.04467 7.13047 9.38 6.68889L13.376 1.42667C13.4766 1.29419 13.607 1.18667 13.757 1.11261C13.907 1.03855 14.0723 1 14.24 1H25.76C25.9277 1 26.093 1.03855 26.243 1.11261C26.393 1.18667 26.5234 1.29419 26.624 1.42667L30.62 6.68889C30.9553 7.13047 31.3902 7.48889 31.89 7.73574C32.3899 7.9826 32.9411 8.11111 33.5 8.11111H34.4C35.3548 8.11111 36.2705 8.48571 36.9456 9.15251C37.6207 9.81931 38 10.7237 38 11.6667V29.4444C38 30.3874 37.6207 31.2918 36.9456 31.9586C36.2705 32.6254 35.3548 33 34.4 33H5.6C4.64522 33 3.72955 32.6254 3.05442 31.9586C2.37928 31.2918 2 30.3874 2 29.4444Z" stroke="white" stroke-width="1.5" stroke-linecap="round" stroke-linejoin="round"/>
<path d="M20.0008 25.8887C21.9103 25.8887 23.7417 25.1395 25.092 23.8059C26.4422 22.4723 27.2008 20.6636 27.2008 18.7776C27.2008 16.8916 26.4422 15.0829 25.092 13.7493C23.7417 12.4157 21.9103 11.6665 20.0008 11.6665C18.0912 11.6665 16.2599 12.4157 14.9096 13.7493C13.5594 15.0829 12.8008 16.8916 12.8008 18.7776C12.8008 20.6636 13.5594 22.4723 14.9096 23.8059C16.2599 25.1395 18.0912 25.8887 20.0008 25.8887V25.8887Z" stroke="white" stroke-width="1.5" stroke-linecap="round" stroke-linejoin="round"/>
</svg>
