<?xml version="1.0" encoding="utf-8"?>
<!-- Generator: Adobe Illustrator 24.1.0, SVG Export Plug-In . SVG Version: 6.00 Build 0)  -->
<svg version="1.1" id="Layer_1" xmlns="http://www.w3.org/2000/svg" xmlns:xlink="http://www.w3.org/1999/xlink" x="0px" y="0px"
	 viewBox="0 0 40 50" style="enable-background:new 0 0 40 50;" xml:space="preserve">
<style type="text/css">
	.st0{fill:none;stroke:#FFFFFF;}
	.st1{fill:none;stroke:#FFFFFF;stroke-width:1.5;}
</style>
<path class="st0" d="M22.5,19c0,1.4-1.1,2.5-2.5,2.5s-2.5-1.1-2.5-2.5s1.1-2.5,2.5-2.5S22.5,17.6,22.5,19z"/>
<path class="st1" d="M37.3,11.8L37.3,11.8v14.4c0,0.2,0,0.4-0.1,0.6s-0.2,0.3-0.4,0.4s-0.3,0.2-0.5,0.2s-0.4,0-0.6,0l0,0l-8.4-2.8
	l0,0l0,0c-0.2-0.1-0.3-0.1-0.5-0.1c0.1-0.2,0.1-0.4,0.1-0.5V14c0-0.2,0-0.4-0.1-0.6c0.2,0,0.4,0,0.5-0.1l0,0l0,0l8.4-2.8l0,0
	c0.2-0.1,0.4-0.1,0.6,0s0.4,0.1,0.5,0.2c0.2,0.1,0.3,0.3,0.4,0.4C37.2,11.4,37.3,11.6,37.3,11.8z M25,25.8c0.2,0,0.4,0,0.6-0.1
	c0,0.2,0,0.4,0.1,0.5l0,0l0,0l2.8,8.4l0,0c0.1,0.2,0.1,0.4,0,0.6c0,0.2-0.1,0.4-0.2,0.5c-0.1,0.2-0.3,0.3-0.4,0.4
	c-0.2,0.1-0.4,0.1-0.6,0.1h-4.7c-0.3,0-0.6,0.1-0.9,0.4c-0.2,0.2-0.4,0.6-0.4,0.9V47c0,0.3-0.1,0.6-0.4,0.9
	c-0.2,0.2-0.6,0.4-0.9,0.4s-0.6-0.1-0.9-0.4c-0.2-0.2-0.4-0.6-0.4-0.9v-9.5c0-0.3-0.1-0.6-0.4-0.9c-0.2-0.2-0.6-0.4-0.9-0.4h-4.7
	c-0.2,0-0.4,0-0.6-0.1c-0.2-0.1-0.3-0.2-0.4-0.4c-0.1-0.2-0.2-0.3-0.2-0.5s0-0.4,0-0.6l0,0l2.8-8.4l0,0l0,0c0.1-0.2,0.1-0.3,0.1-0.5
	c0.2,0.1,0.4,0.1,0.5,0.1H25z M13.3,24c0,0.2,0,0.4,0.1,0.6c-0.2,0-0.4,0-0.5,0.1l0,0l0,0l-8.4,2.8l0,0c-0.2,0.1-0.4,0.1-0.6,0
	c-0.2,0-0.4-0.1-0.5-0.2C3.1,27.1,3,27,2.9,26.8s-0.1-0.4-0.1-0.6l0,0V11.8c0-0.2,0-0.4,0.1-0.6C3,11,3.1,10.9,3.3,10.8
	c0.2-0.1,0.3-0.2,0.5-0.2s0.4,0,0.6,0l0,0l8.4,2.8l0,0l0,0c0.2,0.1,0.3,0.1,0.5,0.1c-0.1,0.2-0.1,0.4-0.1,0.5v10H13.3z M14.4,12.3
	c0-0.2,0-0.4-0.1-0.5l0,0l0,0l-2.8-8.4l0,0c-0.1-0.2-0.1-0.4,0-0.6c0-0.2,0.1-0.4,0.2-0.5C11.9,2.1,12,2,12.2,1.9s0.4-0.1,0.6-0.1
	h14.4c0.2,0,0.4,0,0.6,0.1C28,2,28.1,2.1,28.2,2.3s0.2,0.3,0.2,0.5s0,0.4,0,0.6l0,0l-2.8,8.4l0,0l0,0c-0.1,0.2-0.1,0.3-0.1,0.5
	c-0.2-0.1-0.4-0.1-0.5-0.1H15C14.8,12.3,14.6,12.3,14.4,12.3z"/>
</svg>
